<svg id="Layer_1" data-name="Layer 1" xmlns="http://www.w3.org/2000/svg" viewBox="0 0 1200 340"><defs><style>.cls-1{fill:#0f1c3b;}.cls-2{fill:#f6ac12;}</style></defs><title>egen-logo-mustard</title><path class="cls-1" d="M586.3,208.15h-80a38.44,38.44,0,0,1,0-76.87h35.16l-34.86,48.43H564l35.39-49.16L544.54,77.47H506.32c-50.48,0-91.4,41.3-91.4,92.24S455.84,262,506.32,262h80Z"/><path class="cls-1" d="M708.31,77.47c-54.3,0-92.59,34.38-92.59,81.25,0,57.17,45.95,78.74,82.49,78.74h.46q1.74.06,3.51.06A103,103,0,0,0,748,227c-.43,28.9-14.31,38.28-39.32,38.28-17.4,0-29.94-4.68-35.16-14.37H620.59c10.45,37.81,44.56,55,88.41,55,49.78,0,91.2-22.8,91.2-81.86V160.28C800.2,109.65,762.61,77.47,708.31,77.47Zm0,43.75c23.66,0,39.68,15.31,39.68,37.5s-16,35-39.68,35-39.68-12.81-39.68-35S684.64,121.22,708.31,121.22Z"/><path class="cls-1" d="M1143.29,262V168.81c0-28.39-14.36-40.39-35.53-40.39s-35.54,12-35.54,40.39V262h-56.7V168.81c0-60.41,37-91.34,92.24-91.34S1200,108,1200,168.81V262Z"/><path class="cls-1" d="M987,208.15H907a38.44,38.44,0,0,1,0-76.87h35.16l-34.86,48.43h57.39l35.39-49.16L945.24,77.47H907c-50.48,0-91.4,41.3-91.4,92.24S856.54,262,907,262h80Z"/><path class="cls-2" d="M200.38,8.94a8.82,8.82,0,1,1-17.63,0,8.82,8.82,0,1,1,17.63,0ZM146,18.28a8.88,8.88,0,0,0,8.82-8.93,8.82,8.82,0,1,0-17.63,0A8.87,8.87,0,0,0,146,18.28Zm34.48,21.35a12.83,12.83,0,1,1-12.83-13A12.91,12.91,0,0,1,180.43,39.63ZM123.52,61.25a13,13,0,1,0-12.83-13A12.92,12.92,0,0,0,123.52,61.25ZM98.09,71.62a12.83,12.83,0,1,1-12.83-13A12.93,12.93,0,0,1,98.09,71.62Zm82,26.46a15.93,15.93,0,1,0-15.71-15.93A15.83,15.83,0,0,0,180.09,98.08Zm42,17.09a15.93,15.93,0,1,0-15.71-15.93A15.83,15.83,0,0,0,222.13,115.17ZM175.29,257.44a15.72,15.72,0,1,1-15.72-15.93A15.82,15.82,0,0,1,175.29,257.44Zm29,9.59a15.93,15.93,0,1,0-15.71-15.93A15.83,15.83,0,0,0,204.3,267Zm51.29-44.38a15.72,15.72,0,1,1-15.72-15.93A15.82,15.82,0,0,1,255.59,222.65Zm-138,33.92a15.93,15.93,0,1,0-15.71-15.92A15.82,15.82,0,0,0,117.58,256.57Zm-12.46-52a15.72,15.72,0,1,1-15.71-15.92A15.82,15.82,0,0,1,105.12,204.61ZM83,175.77a15.93,15.93,0,1,0-15.72-15.93A15.82,15.82,0,0,0,83,175.77Zm32.48-58.61a15.72,15.72,0,1,1-15.72-15.93A15.83,15.83,0,0,1,115.44,117.16Zm20.07-12.53a15.93,15.93,0,1,0-15.72-15.92A15.82,15.82,0,0,0,135.51,104.63ZM266,135A15.72,15.72,0,1,1,250.31,119,15.83,15.83,0,0,1,266,135Zm14.41-19.2a13,13,0,1,0-12.83-13A12.92,12.92,0,0,0,280.44,115.76Zm28.89,29.18a12.83,12.83,0,1,1-12.83-13A12.92,12.92,0,0,1,309.33,144.94Zm-12,58.4a13,13,0,1,0-12.82-13A12.91,12.91,0,0,0,297.34,203.34Zm-1.64,29.93a12.83,12.83,0,1,1-12.83-13A12.91,12.91,0,0,1,295.7,233.27Zm-41.25,48a13,13,0,1,0-12.83-13A12.93,12.93,0,0,0,254.45,281.29Zm-25.63,10.44a12.83,12.83,0,1,1-12.83-13A12.91,12.91,0,0,1,228.82,291.73Zm-56.69,21.5a13,13,0,1,0-12.83-13A12.91,12.91,0,0,0,172.13,313.23ZM140.58,293a12.83,12.83,0,1,1-12.83-13A12.93,12.93,0,0,1,140.58,293Zm-51.79-8.81a13,13,0,1,0-12.83-13A12.92,12.92,0,0,0,88.79,284.17ZM72.13,237A12.83,12.83,0,1,1,59.3,224,12.92,12.92,0,0,1,72.13,237ZM43.2,207.72a13,13,0,1,0-12.83-13A12.92,12.92,0,0,0,43.2,207.72Zm11.92-58.37a12.83,12.83,0,1,1-12.83-13A12.91,12.91,0,0,1,55.12,149.35ZM57,119.73a13,13,0,1,0-12.83-13A12.92,12.92,0,0,0,57,119.73ZM235.87,30.58a8.94,8.94,0,1,0-8.81-8.94A8.87,8.87,0,0,0,235.87,30.58ZM283.29,46.2a8.82,8.82,0,1,1-8.82-8.93A8.88,8.88,0,0,1,283.29,46.2Zm21.26,43.74A8.94,8.94,0,1,0,295.73,81,8.89,8.89,0,0,0,304.55,89.94ZM333,123a8.82,8.82,0,1,1-8.82-8.94A8.88,8.88,0,0,1,333,123Zm-1.77,54.61a8.94,8.94,0,1,0-8.82-8.94A8.89,8.89,0,0,0,331.18,177.61Zm2.46,36.8a8.82,8.82,0,1,1-8.82-8.94A8.88,8.88,0,0,1,333.64,214.41ZM306,265.75a8.94,8.94,0,1,0-8.82-8.94A8.87,8.87,0,0,0,306,265.75ZM285.2,292a8.82,8.82,0,1,1-8.82-8.93A8.88,8.88,0,0,1,285.2,292Zm-47.33,34a8.94,8.94,0,1,0-8.82-8.93A8.88,8.88,0,0,0,237.87,326Zm-35,4.64a8.82,8.82,0,1,1-8.81-8.93A8.87,8.87,0,0,1,202.89,330.67ZM148.1,340a8.94,8.94,0,1,0-8.82-8.94A8.88,8.88,0,0,0,148.1,340Zm-35.2-21.92a8.82,8.82,0,1,1-8.82-8.94A8.89,8.89,0,0,1,112.9,318.08ZM65.19,302.36a8.94,8.94,0,1,0-8.81-8.93A8.88,8.88,0,0,0,65.19,302.36ZM43.94,258.92A8.82,8.82,0,1,1,35.12,250,8.88,8.88,0,0,1,43.94,258.92ZM15.75,225.77a8.94,8.94,0,1,0-8.82-8.94A8.88,8.88,0,0,0,15.75,225.77Zm1.89-54.72A8.88,8.88,0,0,1,8.82,180a8.94,8.94,0,0,1,0-17.87A8.88,8.88,0,0,1,17.64,171.05ZM15,134.22a8.94,8.94,0,1,0-8.82-8.94A8.88,8.88,0,0,0,15,134.22Zm27.59-51a8.82,8.82,0,1,1-8.82-8.93A8.88,8.88,0,0,1,42.54,83.18ZM63.38,56.85a8.94,8.94,0,1,0-8.81-8.93A8.88,8.88,0,0,0,63.38,56.85Zm47.31-34.09a8.82,8.82,0,1,1-8.82-8.93A8.88,8.88,0,0,1,110.69,22.76Zm101.42,36.9a13,13,0,1,0-12.83-13A12.92,12.92,0,0,0,212.11,59.66Zm52,8.94a12.83,12.83,0,1,1-12.83-13A12.91,12.91,0,0,1,264.15,68.6ZM256.88,196a15.93,15.93,0,1,0-15.72-15.92A15.82,15.82,0,0,0,256.88,196Z"/></svg>